<?xml version="1.0" encoding="utf-8"?>
<!-- Generator: Adobe Illustrator 24.3.0, SVG Export Plug-In . SVG Version: 6.00 Build 0)  -->
<svg version="1.1" id="Layer_1" xmlns="http://www.w3.org/2000/svg" xmlns:xlink="http://www.w3.org/1999/xlink" x="0px" y="0px"
	 viewBox="0 0 500 500" style="enable-background:new 0 0 500 500;" xml:space="preserve">
<style type="text/css">
	.st0{fill:#F57F30;}
	.st1{fill:#FFFFFF;}
</style>
<circle class="st0" cx="250" cy="250" r="237.46"/>
<path class="st1" d="M444.6,22.95c-2.25-1.54-4.99-3.41-7.73-5.28c-0.18,0.24-0.35,0.49-0.53,0.73c1.26,1.87,2.51,3.73,3.91,5.81
	c-2.36,0.9-5.37-1.02-5.83,2.92c2.67-1.63,4.39,0.11,6.4,1.36c2.4,1.49,4.94,2.92,7.62,3.77c1.74,0.55,3.45,0.04,4.03-2.63
	c0.74-3.43,2.67-6.61,3.39-10.05c0.43-2.03-0.38-4.37-0.87-6.51c-0.19-0.83-1.83-0.59-2.5,0.08c-0.95,0.96-2.28,1.59-3.07,2.64
	C447.62,18.18,446.05,20.76,444.6,22.95z"/>
<path class="st1" d="M446.57,39.3c4.35,0.86,5.54,3.94,6.79,7.06c1.2,3.01,3.51,4.88,6.62,5.76c2.58,0.73,4.49-0.13,4.92-2.77
	c0.61-3.77,2.18-6.3,5.92-7.82c1.91-0.77,3.25-2.94,5.1-4.72c-10.05-2.18-12.08-1.45-19.11,6.8C454.49,40.18,452.36,36,446.57,39.3z
	"/>
<path class="st1" d="M447.35,70.42c-3.56-0.38-5.08,0.31-9.21,4.07c-1.96-2.14-3.05-5.49-6.35-5.47c1.05,2.13,2.05,4.43,3.29,6.58
	c0.92,1.59,1.94,3.26,3.31,4.42c2.17,1.82,3.57,1.21,4.82-1.35c0.63-1.3,1.8-2.34,2.45-3.63C446.38,73.6,446.78,72,447.35,70.42z"/>
<g>
	<path d="M157.51,356.16c-0.06,0.51,3.31,1.66,8.77,2.65c0.3-1.46,0.59-2.89,0.89-4.35c0.6-1.02,1.45-2.63,2.22-4.67
		c1.68-4.42,1.82-7.82,2.57-7.81c0.36-0.01,0.64,0.85,1.2,2.59c0.64,1.94,0.99,3.58,1.2,4.73c0.15,0.78,0.31,1.92,0.33,3.32
		c0,1.06-0.07,1.85-0.17,2.83c-0.16,1.57-0.33,3.05-0.48,4.43c4.93,0.51,10.63,0.76,16.65,0.46c4.15-0.2,7.59-0.62,9.97-0.96
		c-0.51-1.98-1.01-3.95-1.52-5.93c-3.82-7.99-3.17-11.79-1.78-13.78c0.88-1.26,1.01-3.8,7-7c0.71-0.38,1.38-1.1,1.74-1.84
		c2.77-5.7,7.96-6.63,13.53-7.62c4.48-0.8,6.94,0.65,8.19,4.66c2.45,7.84,4.81,15.73,7.3,23.93l-0.07,0l2.47,7.96
		c9.96,0.94,27.37,2.12,29.56-3.83c0.63-1.71-0.15-3.6-0.93-4.94c-0.73-4.14-1.46-8.28-2.18-12.42c6.5,3.15,12.16,5.89,19.29,9.34
		c3.59-10.22,8.18-19.72,9.97-29.71c0.92-5.15-2.83-11.32-5.1-16.75c-1.86-4.48-4.46-8.69-7.09-12.8
		c-4.51-7.08-5.33-10.55,0.65-16.83c7.55-7.94,16.5-14.54,24.92-21.62c1.76-1.47,3.9-2.47,5.87-3.7c-0.02-0.67-0.04-1.34-0.05-2.01
		c-2.68-0.04-5.94-1.1-7.93,0.04c-14.69,8.46-28.56,17.71-33.83,35.41c-2.73,9.14-6.38,18.03-9.93,26.9
		c-5.72,14.29-3.72,28.81-1.53,43.91l-17.22,0.79c-0.62-2-1.35-4.36-2.07-6.72c-3.38-11.13-6.53-22.13-13.75-31.87
		c-4.8-6.46-6.94-14.87-10.38-22.64c-5.44,3.07-3.29,8.08-1.93,12.48c1.41,4.58,3.66,8.9,6.07,14.62
		c-8.42-0.13-15.94-0.24-24.07-0.36c1.89-7.74,9.22-14.3,1.98-22.75c-0.95,1.64-1.68,2.43-1.87,3.32
		c-2.74,12.74-9.92,22.76-20.39,29.86c-6.5,4.41-9.14,9.77-10.42,17.03c-1.04,5.92-1.65,8.97-3.51,10.45
		C159.72,356.48,157.54,355.77,157.51,356.16z M268.43,310.89c-0.79-0.8-1.1-2.8-0.71-3.92c1.88-5.26,4.09-10.4,6.29-15.87
		c13.86,15.48,15.54,34.21,4.61,47.24c-2.63-1.3-5.3-2.58-7.94-3.92c-0.54-0.28-0.98-0.77-1.85-1.48c0.61-1.95,0.69-3.94,1.7-5.11
		C276.14,321.29,273.54,316.07,268.43,310.89z M180.75,331.93c6.33-5.16,11.53-12.54,21.69-7.17c-1.04,1.23-1.92,3.29-3.4,3.91
		c-11.68,4.88-10.39,13.8-7.62,23.29c0.15,0.53-0.12,1.18-0.22,1.98l-11.73,0.54C182.36,346.62,171.51,339.48,180.75,331.93z
		 M139.99,291.18c0.43,8.69,0.83,17.38,1.24,26.06c0.6,13,1.2,26,1.8,39c-0.28,1.59-0.19,3.08,0.67,4.09
		c1.7,2.01,4.99,0.43,12.56,0.17c6.22-0.21,9.54,0.67,10.08-0.68c0.51-1.28-1.98-3.34-2.19-3.51c-4.87-3.99-13.05-1.15-14.88-0.47
		c-0.07-1.55-0.13-3.16-0.22-4.77c-0.8-13.76-1.82-27.51-2.34-41.29c-0.36-9.51-0.05-19.05,0.84-28.67
		c6.6,9.12,12.93,18.14,8.11,30.18c10.88-0.15,14.65-7.89,9.55-17.81c-0.47,2.6-0.89,4.88-1.26,6.85
		c-3.22-7.85-6.39-15.68-9.61-23.46c-2.57-6.18-1.96-12.34,3.19-16.31c7.31-5.64,15.07-11.1,23.46-14.79
		c11.59-5.1,23.95-8.49,36.2-12.68c1.79,6.21,3.12,13.06,5.77,19.36c2.35,5.58,5.44,11.2,9.52,15.59c7.58,8.18,21.59,8.7,30.39,1.77
		c1.97-1.55,2.98-4.31,4.43-6.52c-0.53-0.55-1.05-1.09-1.56-1.63c-2.55,1.2-5.07,2.47-7.66,3.6c-12.23,5.34-21.38,3.06-26.25-9.18
		c-4.49-11.28-6.75-23.57-8.86-35.62c-1.17-6.65,3.71-12.3,10.43-11.76c12.05,0.98,21.66-2.54,31.73-9.19
		c10.69-7.05,23.47-7.39,35.35-1.04c8.48,4.53,16.5,3.93,23.92-1.6c8.06-5.99,11.04-14.66,9.39-24.32
		c-3.46-20.24-24.51-29.41-42.1-18.72c-1.4,0.86-2.94,1.51-4.84,1.26c6.59-7.22,15.13-10.36,24.58-9.89
		c16.5,0.82,28.99,8.66,35.29,24.15c6.5,15.94,3.12,30.46-8.89,42.83c-7.32,7.53-7.85,8.46-6.74,14.42
		c18.05-12.62,27.15-27.9,24.9-47.42c-2.26-19.5-15.33-34.18-33.74-38.98c-13.59-3.55-26.14-1.03-37.67,6.8
		c-5.36,3.64-6.31,7.22-3.38,11.65c3.11,4.69,7.74,5.26,13.18,1.36c5.35-3.84,11.16-5.09,17.53-3.56
		c12.22,2.96,18.99,16.62,14,28.18c-3.95,9.19-12.97,12.42-22.04,8.09c-18.54-8.84-35.47-4.89-51.58,6.45
		c-2.14,1.5-5.11,2.21-7.78,2.45c-5.25,0.5-10.68-0.26-15.8,0.72c-8.55,1.61-13.02,7.16-12.33,15.91c0.46,5.9-1.92,8.68-6.78,10.39
		c-8.82,3.09-17.63,6.23-26.52,9.11c-10.87,3.52-20.87,8.51-29.15,16.52c-6.72,6.52-10.72,13.88-5.93,24.47
		C141.07,280.59,139.69,285.4,139.99,291.18z"/>
	<path d="M357.33,218.19c-6.15,10.36-15.94,12.8-25.94,13.91c-10.12,1.13-20.36,1.08-30.96,1.57c-0.3,1.93-0.57,3.72-0.82,5.36
		c0.7,0.42,1.08,0.84,1.42,0.81c13.52-0.99,27.13-1.44,40.52-3.34c5.36-0.76,10.55-4.28,15.3-7.34
		C360.79,226.64,361.24,222.72,357.33,218.19z"/>
	<path d="M287.85,215.21c2,1.03,4.26,0.69,5.46-0.67c1.01-1.15,0.93-2.64,0.9-3.02"/>
</g>
</svg>
